<svg width="32" height="32" viewBox="0 0 32 32" fill="none" xmlns="http://www.w3.org/2000/svg">
<path d="M4.63633 7.03991C4.36781 7.0948 4.11278 7.20221 3.88591 7.35598C3.65903 7.50974 3.46479 7.70683 3.31433 7.93591C2.98433 8.44991 2.98633 8.40391 2.98633 12.9859C2.98633 17.4259 2.98833 17.4559 3.24833 17.9619C3.39833 18.2519 3.82033 18.6479 4.15833 18.8139L4.45433 18.9599L8.46633 18.9739L12.4803 18.9899V19.7099C12.4803 20.5879 12.3843 21.0979 12.1103 21.6799C11.4643 23.0559 10.2683 23.8599 8.67233 23.9939C8.25433 24.0299 8.12433 24.0619 7.95033 24.1779C7.76729 24.3093 7.63185 24.4965 7.5644 24.7115C7.49696 24.9265 7.50114 25.1575 7.57633 25.3699C7.63871 25.5078 7.72988 25.6307 7.84372 25.7304C7.95757 25.8301 8.09143 25.9043 8.23633 25.9479C8.74633 26.0999 9.93233 25.8959 10.9123 25.4879C11.8143 25.1119 12.8983 24.2099 13.4563 23.3719C13.9603 22.6159 14.3263 21.6579 14.4503 20.7759C14.4883 20.5039 14.5063 18.4019 14.5063 14.5619C14.5063 8.88191 14.5043 8.74991 14.3983 8.40791C14.3038 8.11742 14.1464 7.85137 13.9372 7.62873C13.7281 7.40609 13.4724 7.23235 13.1883 7.11991C12.9443 7.01791 12.7803 7.01391 8.90633 7.00591C6.69233 6.99991 4.77033 7.01591 4.63633 7.03991ZM19.1463 7.03791C18.8202 7.1077 18.515 7.25272 18.2549 7.46142C17.9948 7.67011 17.7871 7.9367 17.6483 8.23991L17.5203 8.55991V17.4659L17.6903 17.8259C17.8943 18.2559 18.2363 18.6039 18.6563 18.8099L18.9603 18.9599L22.9803 18.9739L27.0003 18.9899L26.9743 19.8819C26.9523 20.5999 26.9243 20.8459 26.8283 21.1459C26.4923 22.2159 25.7083 23.1279 24.7263 23.5979C24.2463 23.8259 23.7983 23.9419 23.1803 23.9939C22.6343 24.0399 22.4143 24.1299 22.2203 24.3879C22.0903 24.5559 21.9623 24.9639 22.0003 25.0859L22.0503 25.2919C22.0903 25.4739 22.3623 25.7899 22.5823 25.9079C22.8043 26.0259 23.4983 26.0139 24.1603 25.8759C24.9744 25.7185 25.7465 25.3923 26.4268 24.9183C27.1072 24.4443 27.6806 23.8331 28.1103 23.1239C28.5583 22.3999 28.8443 21.5819 28.9583 20.6939C28.9883 20.4579 29.0103 17.9419 29.0123 14.5579C29.0143 8.24391 29.0243 8.46191 28.6863 7.93591C28.4713 7.59833 28.1589 7.334 27.7903 7.17791L27.4403 7.01391L23.4143 7.00591C21.1983 6.99991 19.2783 7.01591 19.1463 7.03791Z" fill="white"/>
</svg>
