<svg width="24" height="24" viewBox="0 0 24 24" fill="none" xmlns="http://www.w3.org/2000/svg">
<path d="M3.47676 5.27999C3.27537 5.32116 3.0841 5.40172 2.91394 5.51704C2.74379 5.63237 2.5981 5.78018 2.48526 5.95199C2.23776 6.33749 2.23926 6.30299 2.23926 9.73949C2.23926 13.0695 2.24076 13.092 2.43576 13.4715C2.54826 13.689 2.86476 13.986 3.11826 14.1105L3.34026 14.22L6.34926 14.2305L9.35976 14.2425V14.7825C9.35976 15.441 9.28776 15.8235 9.08226 16.26C8.59776 17.292 7.70076 17.895 6.50376 17.9955C6.19026 18.0225 6.09276 18.0465 5.96226 18.1335C5.82498 18.232 5.7234 18.3725 5.67281 18.5337C5.62223 18.6949 5.62537 18.8682 5.68176 19.0275C5.72854 19.1309 5.79692 19.2231 5.8823 19.2979C5.96769 19.3726 6.06809 19.4283 6.17676 19.461C6.55926 19.575 7.44876 19.422 8.18376 19.116C8.86026 18.834 9.67326 18.1575 10.0918 17.529C10.4698 16.962 10.7443 16.2435 10.8373 15.582C10.8658 15.378 10.8793 13.8015 10.8793 10.9215C10.8793 6.66149 10.8778 6.56249 10.7983 6.30599C10.7274 6.08813 10.6093 5.88859 10.4524 5.72161C10.2956 5.55463 10.1038 5.42433 9.89076 5.33999C9.70776 5.26349 9.58476 5.26049 6.67926 5.25449C5.01876 5.24999 3.57726 5.26199 3.47676 5.27999ZM14.3593 5.27849C14.1147 5.33084 13.8858 5.4396 13.6907 5.59612C13.4956 5.75264 13.3398 5.95258 13.2358 6.17999L13.1398 6.41999V13.0995L13.2673 13.3695C13.4203 13.692 13.6768 13.953 13.9918 14.1075L14.2198 14.22L17.2348 14.2305L20.2498 14.2425L20.2303 14.9115C20.2138 15.45 20.1928 15.6345 20.1208 15.8595C19.8688 16.662 19.2808 17.346 18.5443 17.6985C18.1843 17.8695 17.8483 17.9565 17.3848 17.9955C16.9753 18.03 16.8103 18.0975 16.6648 18.291C16.5673 18.417 16.4713 18.723 16.4998 18.8145L16.5373 18.969C16.5673 19.1055 16.7713 19.3425 16.9363 19.431C17.1028 19.5195 17.6233 19.5105 18.1198 19.407C18.7303 19.2889 19.3094 19.0443 19.8196 18.6888C20.3299 18.3333 20.76 17.8749 21.0823 17.343C21.4183 16.8 21.6328 16.1865 21.7183 15.5205C21.7408 15.3435 21.7573 13.4565 21.7588 10.9185C21.7603 6.18299 21.7678 6.34649 21.5143 5.95199C21.353 5.69881 21.1187 5.50056 20.8423 5.38349L20.5798 5.26049L17.5603 5.25449C15.8983 5.24999 14.4583 5.26199 14.3593 5.27849Z" fill="#1C1D20"/>
</svg>
