<svg width="24" height="24" viewBox="0 0 24 24" fill="none" xmlns="http://www.w3.org/2000/svg">
<g clip-path="url(#clip0_165_703)">
<path d="M11.5801 0.0565688C11.1704 0.157712 10.7401 0.47314 10.5395 0.819426C10.4881 0.906854 9.88463 2.52857 9.19721 4.41943C8.51149 6.312 7.92864 7.88057 7.90464 7.90457C7.88064 7.92857 6.31206 8.51143 4.41949 9.19885C2.49949 9.89657 0.898349 10.5 0.793778 10.5669C0.432408 10.7953 0.170351 11.1515 0.0597959 11.5645C-0.0507588 11.9775 -0.00169836 12.417 0.197206 12.7954C0.312064 13.02 0.612064 13.3406 0.819492 13.4606C0.906921 13.512 2.52864 14.1154 4.41949 14.8029C6.31206 15.4886 7.88064 16.0714 7.90464 16.0954C7.92864 16.1194 8.51149 17.688 9.19721 19.5806C9.88463 21.4714 10.4881 23.0931 10.5395 23.1806C10.7383 23.5234 11.1601 23.8337 11.5801 23.9451C12.2761 24.132 13.1058 23.7943 13.4606 23.1806C13.5121 23.0931 14.1155 21.4714 14.8029 19.5806C15.4886 17.688 16.0715 16.1194 16.0955 16.0954C16.1195 16.0714 17.6881 15.4886 19.5806 14.8029C21.4715 14.1154 23.0932 13.512 23.1806 13.4606C23.3881 13.3406 23.6881 13.02 23.8029 12.7954C24.0018 12.417 24.0509 11.9775 23.9403 11.5645C23.8298 11.1515 23.5677 10.7953 23.2063 10.5669C23.1018 10.5 21.5109 9.9 19.5806 9.19885C18.413 8.7834 17.2512 8.35193 16.0955 7.90457C15.6483 6.74899 15.2174 5.58716 14.8029 4.41943C14.1155 2.52857 13.5121 0.906854 13.4606 0.819426C13.2856 0.557544 13.0505 0.341259 12.7749 0.188569C12.4049 0.00430518 11.9814 -0.0424777 11.5801 0.0565688Z" fill="#1C1D20"/>
</g>
<defs>
<clipPath id="clip0_165_703">
<rect width="24" height="24" fill="white"/>
</clipPath>
</defs>
</svg>
