<svg width="151" height="48" viewBox="0 0 151 48" fill="none" xmlns="http://www.w3.org/2000/svg">
<path d="M78.7667 14.6719C78.7667 16.0233 77.672 17.1119 76.3131 17.1119C74.9542 17.1119 73.8596 16.0233 73.8596 14.6719C73.8596 13.3206 74.9165 12.232 76.3131 12.232C77.7098 12.2695 78.7667 13.3581 78.7667 14.6719ZM68.6504 19.5893C68.6504 19.8146 68.6504 20.1899 68.6504 20.1899C68.6504 20.1899 67.4803 18.6884 64.9889 18.6884C60.8745 18.6884 57.666 21.8041 57.666 26.1209C57.666 30.4001 60.8367 33.5533 64.9889 33.5533C67.518 33.5533 68.6504 32.0143 68.6504 32.0143V32.6524C68.6504 32.9527 68.8769 33.1779 69.1789 33.1779H72.2364V19.0638C72.2364 19.0638 69.4431 19.0638 69.1789 19.0638C68.8769 19.0638 68.6504 19.3266 68.6504 19.5893ZM68.6504 28.6359C68.0842 29.4617 66.9518 30.1749 65.5929 30.1749C63.1771 30.1749 61.3274 28.6734 61.3274 26.1209C61.3274 23.5683 63.1771 22.0668 65.5929 22.0668C66.9141 22.0668 68.122 22.8176 68.6504 23.6059V28.6359ZM74.5013 19.0638H78.125V33.1779H74.5013V19.0638ZM128.631 18.6884C126.14 18.6884 124.969 20.1899 124.969 20.1899V12.2695H121.346V33.1779C121.346 33.1779 124.139 33.1779 124.403 33.1779C124.705 33.1779 124.932 32.9152 124.932 32.6524V32.0143C124.932 32.0143 126.102 33.5533 128.593 33.5533C132.708 33.5533 135.916 30.4001 135.916 26.1209C135.916 21.8416 132.708 18.6884 128.631 18.6884ZM128.027 30.1374C126.63 30.1374 125.536 29.4242 124.969 28.5983V23.5683C125.536 22.8176 126.744 22.0293 128.027 22.0293C130.443 22.0293 132.292 23.5308 132.292 26.0833C132.292 28.6359 130.443 30.1374 128.027 30.1374ZM119.458 24.8071V33.2155H115.835V25.22C115.835 22.8926 115.08 21.9542 113.041 21.9542C111.947 21.9542 110.814 22.5173 110.097 23.3431V33.1779H106.473V19.0638H109.342C109.644 19.0638 109.871 19.3266 109.871 19.5893V20.1899C110.927 19.1014 112.324 18.6884 113.721 18.6884C115.306 18.6884 116.627 19.1389 117.684 20.0398C118.968 21.0908 119.458 22.4422 119.458 24.8071ZM97.6781 18.6884C95.1868 18.6884 94.0166 20.1899 94.0166 20.1899V12.2695H90.3929V33.1779C90.3929 33.1779 93.1862 33.1779 93.4504 33.1779C93.7524 33.1779 93.9789 32.9152 93.9789 32.6524V32.0143C93.9789 32.0143 95.149 33.5533 97.6404 33.5533C101.755 33.5533 104.963 30.4001 104.963 26.1209C105.001 21.8416 101.793 18.6884 97.6781 18.6884ZM97.0742 30.1374C95.6775 30.1374 94.5828 29.4242 94.0166 28.5983V23.5683C94.5828 22.8176 95.7908 22.0293 97.0742 22.0293C99.49 22.0293 101.34 23.5308 101.34 26.0833C101.34 28.6359 99.49 30.1374 97.0742 30.1374ZM87.2599 18.6884C88.3545 18.6884 88.9207 18.8761 88.9207 18.8761V22.217C88.9207 22.217 85.901 21.2035 84.0136 23.3431V33.2155H80.3898V19.0638C80.3898 19.0638 83.1832 19.0638 83.4474 19.0638C83.7494 19.0638 83.9758 19.3266 83.9758 19.5893V20.1899C84.6553 19.4017 86.1274 18.6884 87.2599 18.6884ZM49.6258 31.9017C49.437 31.4512 49.2483 30.9632 49.0596 30.5503C48.7576 29.8746 48.4556 29.2365 48.1914 28.6359L48.1536 28.5983C45.5491 22.9677 42.7558 17.262 39.8115 11.6314L39.6982 11.4062C39.3963 10.8431 39.0943 10.2425 38.7923 9.64189C38.4148 8.96622 38.0374 8.253 37.4334 7.57733C36.2255 6.07583 34.4891 5.25 32.6395 5.25C30.7521 5.25 29.0535 6.07583 27.8078 7.50225C27.2416 8.17793 26.8264 8.89114 26.4489 9.56682C26.1469 10.1674 25.845 10.768 25.543 11.3311L25.4297 11.5563C22.5232 17.1869 19.6922 22.8926 17.0876 28.5233L17.0498 28.5983C16.7856 29.1989 16.4836 29.8371 16.1816 30.5128C15.9929 30.9257 15.8042 31.3761 15.6154 31.8641C15.1247 33.253 14.9737 34.5668 15.1625 35.9182C15.5777 38.7335 17.4651 41.0983 20.0696 42.1494C21.0511 42.5623 22.0702 42.75 23.1272 42.75C23.4291 42.75 23.8066 42.7125 24.1086 42.6749C25.3542 42.5248 26.6377 42.1119 27.8833 41.3986C29.431 40.5353 30.9031 39.2965 32.564 37.4947C34.2249 39.2965 35.7348 40.5353 37.2447 41.3986C38.4903 42.1119 39.7737 42.5248 41.0194 42.6749C41.3214 42.7125 41.6988 42.75 42.0008 42.75C43.0577 42.75 44.1147 42.5623 45.0584 42.1494C47.7007 41.0983 49.5503 38.6959 49.9655 35.9182C50.2675 34.6044 50.1165 33.2905 49.6258 31.9017ZM32.6017 33.8536C30.5634 31.301 29.2422 28.8986 28.7893 26.8716C28.6005 26.0083 28.5628 25.2575 28.676 24.5818C28.7515 23.9812 28.978 23.4557 29.28 23.0053C29.9972 21.9917 31.2051 21.3536 32.6017 21.3536C33.9984 21.3536 35.244 21.9542 35.9235 23.0053C36.2255 23.4557 36.452 23.9812 36.5275 24.5818C36.6407 25.2575 36.603 26.0458 36.4142 26.8716C35.9612 28.8611 34.6401 31.2635 32.6017 33.8536ZM47.6629 35.6179C47.3987 37.5698 46.0775 39.259 44.2279 40.0098C43.322 40.3851 42.3405 40.4977 41.3591 40.3851C40.4154 40.2725 39.4717 39.9722 38.4903 39.4092C37.1314 38.6584 35.7725 37.4947 34.1871 35.768C36.6784 32.7275 38.1883 29.9497 38.7546 27.4722C39.0188 26.3086 39.0565 25.2575 38.9433 24.2815C38.7923 23.3431 38.4526 22.4797 37.9241 21.729C36.7539 20.0398 34.7911 19.0638 32.6017 19.0638C30.4124 19.0638 28.4495 20.0773 27.2794 21.729C26.7509 22.4797 26.4112 23.3431 26.2602 24.2815C26.1092 25.2575 26.1469 26.3461 26.4489 27.4722C27.0151 29.9497 28.5628 32.765 31.0163 35.8056C29.4687 37.5323 28.0721 38.6959 26.7132 39.4467C25.7317 40.0098 24.788 40.3101 23.8444 40.4227C22.8252 40.5353 21.8437 40.3851 20.9756 40.0473C19.1259 39.2965 17.8048 37.6074 17.5406 35.6554C17.4273 34.717 17.5028 33.7785 17.8803 32.7275C17.9935 32.3521 18.1823 31.9767 18.371 31.5263C18.6352 30.9257 18.9372 30.2875 19.2392 29.6494L19.2769 29.5743C21.8815 23.9812 24.6748 18.2755 27.5813 12.72L27.6946 12.4947C27.9966 11.9317 28.2985 11.3311 28.6005 10.768C28.9025 10.1674 29.2422 9.60435 29.6574 9.11637C30.4501 8.21547 31.5071 7.72748 32.6772 7.72748C33.8474 7.72748 34.9043 8.21547 35.697 9.11637C36.1122 9.60435 36.452 10.1674 36.7539 10.768C37.0559 11.3311 37.3579 11.9317 37.6599 12.4947L37.7731 12.72C40.6419 18.3131 43.4352 24.0188 46.0398 29.6119V29.6494C46.3418 30.25 46.606 30.9257 46.908 31.5263C47.0967 31.9767 47.2854 32.3521 47.3987 32.7275C47.7007 33.7035 47.8139 34.6419 47.6629 35.6179Z" fill="white"/>
</svg>
