<svg width="146" height="48" viewBox="0 0 146 48" fill="none" xmlns="http://www.w3.org/2000/svg">
<path d="M15.0631 5.25H40.1684V17.75H27.6158L15.0631 5.25ZM15.0631 17.75H27.6158L40.1684 30.25H15.0631V17.75ZM15.0631 30.25H27.6158V42.75L15.0631 30.25Z" fill="white"/>
<path d="M54.3336 15.1113H64.4816V18.3225H58.1745V22.785H64.4816V25.9253H58.1745V31.6392H54.3336V15.1113ZM66.568 20.2584H70.1959V22.6432C70.3855 21.8237 70.7731 21.1946 71.3578 20.7542C71.9573 20.2973 72.6229 20.0696 73.3494 20.0696C73.7291 20.0696 74.0455 20.1017 74.2976 20.164V23.5171C73.9358 23.4736 73.5717 23.4501 73.207 23.4461C72.2112 23.4461 71.4611 23.7681 70.9546 24.4138C70.4498 25.0435 70.1959 25.9877 70.1959 27.2476V31.6392H66.5698V20.2584H66.568ZM80.0246 31.9463C78.9185 31.9463 77.9537 31.6861 77.1318 31.1668C76.3255 30.6475 75.6846 29.9103 75.2826 29.0416C74.8559 28.1294 74.6411 27.0971 74.6411 25.9488C74.6411 24.8153 74.8639 23.7916 75.3061 22.8794C75.7208 21.9981 76.3789 21.2529 77.203 20.7308C78.0398 20.2115 78.9966 19.9513 80.0723 19.9513C80.878 19.9513 81.5982 20.1251 82.2299 20.4711C82.8617 20.8183 83.3361 21.2906 83.6525 21.8877V20.2584H87.2563V31.6392H83.6525V30.0333C83.3361 30.6 82.8462 31.0638 82.1823 31.4264C81.5184 31.777 80.7764 31.9554 80.0246 31.9463ZM81.0681 28.9472C81.937 28.9472 82.609 28.6641 83.0834 28.0974C83.5577 27.5306 83.7949 26.8141 83.7949 25.9488C83.7949 25.0989 83.5577 24.3903 83.0834 23.8236C82.609 23.2568 81.937 22.9737 81.0681 22.9737C80.2451 22.9737 79.5824 23.2488 79.0764 23.8001C78.5865 24.3515 78.3413 25.0669 78.3413 25.9488C78.3413 26.8306 78.5865 27.5541 79.0764 28.1208C79.5824 28.6722 80.2463 28.9472 81.0681 28.9472ZM89.7936 20.2584H93.4215V21.9112C93.6753 21.3278 94.0854 20.8554 94.6539 20.4946C95.2397 20.1337 95.9191 19.9513 96.6933 19.9513C98.4954 19.9513 99.6894 20.6513 100.274 22.053C100.595 21.4176 101.098 20.892 101.72 20.542C102.385 20.1434 103.149 19.9393 103.925 19.9513C106.628 19.9513 107.98 21.4931 107.98 24.5791V31.6392H104.328V25.2402C104.328 24.4698 104.186 23.9031 103.901 23.5405C103.617 23.1791 103.19 22.9972 102.621 22.9972C102.004 22.9972 101.53 23.2099 101.198 23.6349C100.866 24.0443 100.7 24.7598 100.7 25.7835V31.6392H97.0488V25.2167C97.0488 24.4458 96.9069 23.8865 96.6221 23.5405C96.3544 23.1791 95.9346 22.9972 95.3666 22.9972C94.7337 22.9972 94.2513 23.2099 93.9194 23.6349C93.5874 24.0443 93.4215 24.7598 93.4215 25.7835V31.6392H89.7947V20.2584H89.7936ZM121.608 25.3586C121.608 25.8458 121.576 26.3737 121.511 26.9404H113.072C113.104 27.6805 113.356 28.2461 113.831 28.6407C114.305 29.0336 114.946 29.2309 115.751 29.2309C116.874 29.2309 117.585 28.8918 117.885 28.2152H121.442C121.267 29.3333 120.651 30.2374 119.592 30.9306C118.549 31.6071 117.268 31.9463 115.751 31.9463C113.792 31.9463 112.25 31.4184 111.127 30.3638C110.021 29.3087 109.468 27.8378 109.468 25.9488C109.468 24.7209 109.72 23.6583 110.226 22.761C110.715 21.8648 111.468 21.1397 112.384 20.6833C113.317 20.196 114.4 19.9513 115.634 19.9513C116.803 19.9513 117.838 20.1795 118.739 20.6364C119.655 21.0933 120.359 21.7304 120.849 22.5488C121.355 23.3684 121.608 24.3046 121.608 25.3586ZM118.026 24.6975C118.01 23.942 117.797 23.3666 117.386 22.9737C116.975 22.5809 116.382 22.3836 115.607 22.3836C114.833 22.3836 114.217 22.5957 113.758 23.0212C113.316 23.4307 113.087 23.9889 113.07 24.6975H118.026ZM123.207 20.2584H126.835V22.6432C127.025 21.8237 127.412 21.1946 127.997 20.7542C128.564 20.3093 129.266 20.0679 129.989 20.0696C130.368 20.0696 130.685 20.1017 130.937 20.164V23.5171C130.575 23.4736 130.211 23.4501 129.846 23.4461C128.85 23.4461 128.1 23.7681 127.594 24.4138C127.087 25.0435 126.835 25.9877 126.835 27.2476V31.6392H123.207V20.2584Z" fill="white"/>
</svg>
