<svg width="91" height="40" viewBox="0 0 91 40" fill="none" xmlns="http://www.w3.org/2000/svg">
<path d="M77.6245 39.5822V21.9901H84.4195C85.6069 21.9901 86.6405 22.2173 87.5201 22.6718C88.3997 23.1116 89.0814 23.7493 89.5651 24.5849C90.0636 25.4059 90.3128 26.3661 90.3128 27.4656C90.3128 28.4919 90.0636 29.3934 89.5651 30.1704C89.0667 30.9328 88.3703 31.5265 87.4761 31.9516C86.5965 32.3768 85.5776 32.5893 84.4195 32.5893H81.3408V39.5822H77.6245ZM86.5745 39.5822L82.1985 31.9956H86.1567L90.7526 39.5822H86.5745ZM81.3408 29.4887H84.3315C85.0352 29.4887 85.5849 29.3128 85.9808 28.961C86.3912 28.5945 86.5965 28.1034 86.5965 27.4876C86.5965 26.8719 86.3912 26.3881 85.9808 26.0363C85.5849 25.6698 85.0352 25.4865 84.3315 25.4865H81.3408V29.4887Z" fill="#6253FF"/>
<path d="M62.8428 39.5822V21.9901H74.3436V25.2007H66.5591V29.2468H73.2441V32.3694H66.5591V36.3716H74.1237V39.5822H62.8428Z" fill="#6253FF"/>
<path d="M47.0498 39.5822V21.9901H53.7568C54.9589 21.9901 56.0144 22.2173 56.9234 22.6718C57.8323 23.1263 58.5286 23.764 59.0124 24.5849C59.5109 25.4059 59.7601 26.3808 59.7601 27.5096C59.7601 28.5945 59.5109 29.54 59.0124 30.3464C58.5286 31.138 57.8323 31.7537 56.9234 32.1935C56.0144 32.6333 54.9589 32.8532 53.7568 32.8532H50.7661V39.5822H47.0498ZM50.7661 29.5107H53.7788C54.4825 29.5107 55.0322 29.3348 55.428 28.983C55.8385 28.6311 56.0438 28.14 56.0438 27.5096C56.0438 26.8646 55.8385 26.3661 55.428 26.0143C55.0322 25.6625 54.4825 25.4865 53.7788 25.4865H50.7661V29.5107Z" fill="#6253FF"/>
<path d="M37.3698 40C35.0974 40 33.3749 39.223 32.2021 37.669C31.0293 36.1151 30.4429 33.8208 30.4429 30.7861C30.4429 27.7515 31.0293 25.4572 32.2021 23.9032C33.3749 22.3492 35.0974 21.5723 37.3698 21.5723C39.6421 21.5723 41.3646 22.3492 42.5374 23.9032C43.7102 25.4572 44.2966 27.7515 44.2966 30.7861C44.2966 33.8208 43.7102 36.1151 42.5374 37.669C41.3646 39.223 39.6421 40 37.3698 40ZM37.3698 36.6135C38.4546 36.6135 39.2609 36.137 39.7887 35.1841C40.3164 34.2166 40.5803 32.7506 40.5803 30.7861C40.5803 28.8217 40.3164 27.363 39.7887 26.4101C39.2609 25.4425 38.4546 24.9587 37.3698 24.9587C36.2849 24.9587 35.4786 25.4425 34.9508 26.4101C34.4231 27.363 34.1592 28.8217 34.1592 30.7861C34.1592 32.7506 34.4231 34.2166 34.9508 35.1841C35.4786 36.137 36.2849 36.6135 37.3698 36.6135Z" fill="#6253FF"/>
<path d="M21.9723 40C19.7 40 17.9774 39.223 16.8046 37.669C15.6318 36.1151 15.0454 33.8208 15.0454 30.7861C15.0454 27.7515 15.6318 25.4572 16.8046 23.9032C17.9774 22.3492 19.7 21.5723 21.9723 21.5723C24.2446 21.5723 25.9672 22.3492 27.14 23.9032C28.3128 25.4572 28.8992 27.7515 28.8992 30.7861C28.8992 33.8208 28.3128 36.1151 27.14 37.669C25.9672 39.223 24.2446 40 21.9723 40ZM21.9723 36.6135C23.0571 36.6135 23.8634 36.137 24.3912 35.1841C24.919 34.2166 25.1828 32.7506 25.1828 30.7861C25.1828 28.8217 24.919 27.363 24.3912 26.4101C23.8634 25.4425 23.0571 24.9587 21.9723 24.9587C20.8874 24.9587 20.0811 25.4425 19.5534 26.4101C19.0256 27.363 18.7617 28.8217 18.7617 30.7861C18.7617 32.7506 19.0256 34.2166 19.5534 35.1841C20.0811 36.137 20.8874 36.6135 21.9723 36.6135Z" fill="#6253FF"/>
<path d="M6.88278 40C4.68377 40 3.01252 39.223 1.86904 37.669C0.725551 36.1151 0.153809 33.8208 0.153809 30.7861C0.153809 27.7515 0.740211 25.4572 1.91302 23.9032C3.08582 22.3492 4.80838 21.5723 7.08069 21.5723C8.35612 21.5723 9.45562 21.8361 10.3792 22.3639C11.3028 22.8917 12.0285 23.6613 12.5562 24.6729C13.0987 25.6844 13.4065 26.9085 13.4798 28.3452H10.0933C9.87344 27.2164 9.51426 26.3734 9.01582 25.8164C8.53204 25.2446 7.887 24.9587 7.08069 24.9587C5.99585 24.9587 5.18954 25.4425 4.66178 26.4101C4.13402 27.363 3.87014 28.8217 3.87014 30.7861C3.87014 32.7506 4.11936 34.2166 4.6178 35.1841C5.11624 36.137 5.87124 36.6135 6.88278 36.6135C7.63045 36.6135 8.23884 36.3496 8.70796 35.8219C9.19174 35.2941 9.54358 34.5098 9.76349 33.4689H13.15C13.062 34.847 12.7541 36.0271 12.2264 37.0093C11.6986 37.9769 10.9803 38.7172 10.0713 39.2303C9.17708 39.7434 8.11423 40 6.88278 40Z" fill="#6253FF"/>
<path d="M64.9099 0L67.8786 6.15723L68.1205 7.67455H68.5163L68.7582 6.15723L71.7708 0H75.4871L70.0556 10.8631V17.5921H66.3393V10.8631L60.9297 0H64.9099Z" fill="#6253FF"/>
<path d="M46.4561 17.5921V0H52.2834L55.6919 14.7774H56.0657L55.8678 8.09236V0H59.0784V17.5921H53.251L49.8425 2.81473H49.4687L49.6666 9.49973V17.5921H46.4561Z" fill="#6253FF"/>
<path d="M31.0586 17.5921V0H36.886L40.2944 14.7774H40.6683L40.4704 8.09236V0H43.6809V17.5921H37.8535L34.4451 2.81473H34.0712L34.2691 9.49973V17.5921H31.0586Z" fill="#6253FF"/>
<path d="M16.6509 17.5921V0H28.1517V3.21055H20.3672V7.25673H27.0522V10.3793H20.3672V14.3815H27.9318V17.5921H16.6509Z" fill="#6253FF"/>
<path d="M6.15723 18.0099C4.8818 18.0099 3.7823 17.768 2.85871 17.2842C1.94979 16.8004 1.24611 16.1114 0.747664 15.2172C0.249221 14.3082 0 13.2307 0 11.9846V9.89555H3.65036V11.8527C3.65036 12.7469 3.86293 13.436 4.28807 13.9197C4.72787 14.3889 5.35093 14.6234 6.15723 14.6234C6.96353 14.6234 7.57926 14.3889 8.0044 13.9197C8.4442 13.436 8.6641 12.7469 8.6641 11.8527V3.5624H1.25344V0H12.3804V11.9846C12.3804 13.2307 12.1312 14.3082 11.6328 15.2172C11.1343 16.1114 10.416 16.8004 9.47774 17.2842C8.55415 17.768 7.44732 18.0099 6.15723 18.0099Z" fill="#6253FF"/>
</svg>
