<svg width="198" height="48" viewBox="0 0 198 48" fill="none" xmlns="http://www.w3.org/2000/svg">
<path fill-rule="evenodd" clip-rule="evenodd" d="M92.0309 29.3212C90.8645 29.5907 90.2611 29.2312 90.2611 28.4572C90.2611 27.3967 91.3557 26.9722 92.9193 26.9722C93.6071 26.9722 94.2559 27.0317 94.2559 27.0317C94.2559 27.4857 93.2712 29.0347 92.0309 29.3212ZM93.2178 18.7037C89.4841 18.7037 86.8034 20.0792 86.8034 20.0792V24.1227C86.8034 24.1227 89.763 22.4182 92.1642 22.4182C94.0797 22.4182 94.3153 23.4537 94.2285 24.3127C94.2285 24.3127 93.6755 24.1662 91.9895 24.1662C88.0152 24.1662 86.0098 25.9757 86.0098 28.8767C86.0098 31.6287 88.2638 32.7786 90.1633 32.7786C92.9343 32.7786 94.1531 30.9127 94.5269 30.0277C94.7869 29.4137 94.8349 28.9997 95.0674 28.9997C95.3344 28.9997 95.2446 29.2967 95.2311 29.9077C95.2092 30.9782 95.2601 31.7872 95.4293 32.4691H99.1041V25.8472C99.1041 21.7127 97.6438 18.7037 93.2178 18.7037Z" fill="white"/>
<path fill-rule="evenodd" clip-rule="evenodd" d="M117.404 25.7479C117.404 24.5384 118.527 23.4369 120.587 23.4369C122.831 23.4369 124.638 24.5199 125.042 24.7659V20.0849C125.042 20.0849 123.616 18.7089 120.11 18.7089C116.414 18.7089 113.336 20.8754 113.336 25.5389C113.336 30.2019 116.13 32.7879 120.1 32.7879C123.202 32.7879 125.05 31.0804 125.05 31.0804V26.6349C124.466 26.9624 122.836 28.0959 120.61 28.0959C118.252 28.0959 117.404 27.0089 117.404 25.7479ZM68.2884 19.0154C68.2889 19.0184 68.523 20.0244 68.2146 21.3399C68.0573 22.0089 67.7684 22.5779 68.1172 22.5779C68.3578 22.5779 68.3583 22.3779 68.6712 21.6609C69.1289 20.6129 70.0937 18.7054 72.3481 18.7054C74.4912 18.7054 75.5008 20.0099 75.8352 21.2314C76.0898 22.1594 75.8672 22.5779 76.1776 22.5779C76.3982 22.5779 76.4746 22.0964 76.7461 21.4874C77.2337 20.3964 78.2943 18.7054 80.4394 18.7054C83.676 18.7054 84.9118 21.0469 84.9118 24.5594V32.4739H80.1035V25.1774C80.1035 23.9609 79.9074 22.7809 78.8004 22.7809C77.7747 22.7809 77.2966 24.6019 77.2966 25.7774V32.4769H72.4V25.1779C72.4 23.6214 72.1809 22.7814 71.0888 22.7814C70.1436 22.7814 69.5921 24.4569 69.5921 25.7779V32.4744H64.7149V19.0154H68.2884ZM100.705 19.0339C100.707 19.0349 101.537 19.5144 103.148 19.5144C104.762 19.5144 105.581 19.0339 105.581 19.0339V32.4774H100.705V19.0339ZM140.966 19.0339C140.968 19.0349 141.798 19.5144 143.41 19.5144C145.023 19.5144 145.843 19.0339 145.843 19.0339V32.4774H140.966V19.0339ZM112.037 14.941V32.4774H107.159V14.941H112.037ZM130.838 14.941C130.839 14.9425 131.041 15.4465 131.041 16.9454C131.041 19.1589 130.56 20.9604 130.333 21.6469C130.213 22.0104 129.998 22.5714 130.306 22.5814C130.484 22.5869 130.59 22.3189 130.808 21.8539C131.025 21.3884 132.099 18.7084 134.922 18.7084C138.81 18.7084 139.382 21.8984 139.382 25.3529V32.4769H134.505V25.0604C134.505 23.5394 134.186 22.7839 133.169 22.7839C131.94 22.7839 131.506 24.6899 131.506 25.7809V32.4769H126.629V14.9405L130.838 14.941ZM151.064 19.0154C151.065 19.0184 151.299 20.0244 150.99 21.3399C150.833 22.0089 150.544 22.5779 150.893 22.5779C151.134 22.5779 151.134 22.3779 151.447 21.6609C151.904 20.6129 152.87 18.7054 155.124 18.7054C157.365 18.7054 158.254 20.0159 158.611 21.2314C158.851 22.0459 158.643 22.5779 158.953 22.5779C159.174 22.5779 159.25 22.0964 159.522 21.4874C160.009 20.3964 161.07 18.7054 163.215 18.7054C166.452 18.7054 167.688 21.0469 167.688 24.5594V32.4739H162.879V25.1774C162.879 23.9609 162.683 22.7809 161.576 22.7809C160.551 22.7809 160.072 24.6019 160.072 25.7774V32.4769H155.175V25.1779C155.175 23.6214 154.957 22.7814 153.865 22.7814C152.919 22.7814 152.368 24.4569 152.368 25.7779V32.4744H147.491V19.0154H151.064ZM103.128 14.805C101.48 14.805 100.143 15.679 100.143 16.7569C100.143 17.8349 101.48 18.7089 103.128 18.7089C104.777 18.7089 106.114 17.8349 106.114 16.7569C106.114 15.679 104.778 14.805 103.128 14.805ZM143.39 14.805C141.742 14.805 140.405 15.679 140.405 16.7569C140.405 17.8349 141.741 18.7089 143.39 18.7089C145.039 18.7089 146.376 17.8349 146.376 16.7569C146.376 15.679 145.039 14.805 143.39 14.805Z" fill="white"/>
<path fill-rule="evenodd" clip-rule="evenodd" d="M175.995 29.5772C174.877 29.5772 174.055 28.1567 174.055 26.1772C174.055 24.2547 174.899 22.7782 175.957 22.7782C177.313 22.7782 177.892 24.0247 177.892 26.1772C177.892 28.4167 177.358 29.5772 175.995 29.5772ZM177.333 18.7007C174.827 18.7007 173.678 20.5832 173.179 21.6557C172.849 22.3642 172.867 22.5727 172.625 22.5727C172.277 22.5727 172.566 22.0037 172.723 21.3347C173.032 20.0172 172.797 19.0107 172.797 19.0107H169.226V36.1821H174.101V30.7382C174.677 31.7187 175.746 32.7662 177.393 32.7662C180.919 32.7662 182.694 29.7777 182.694 25.7402C182.694 21.1642 180.57 18.7007 177.334 18.7007" fill="white"/>
<path fill-rule="evenodd" clip-rule="evenodd" d="M47.4744 22.7638C47.8023 22.7248 48.1162 22.7228 48.4052 22.7638C48.5724 22.3798 48.6008 21.7183 48.4506 20.9978C48.2275 19.9268 47.9251 19.2788 47.3002 19.3798C46.6753 19.4808 46.6524 20.2568 46.876 21.3273C47.0017 21.9298 47.2253 22.4448 47.4744 22.7638Z" fill="white"/>
<path fill-rule="evenodd" clip-rule="evenodd" d="M42.1135 23.6114C42.5602 23.8078 42.8352 23.9383 42.9425 23.8243C43.0119 23.7533 42.9909 23.6179 42.8841 23.4434C42.6635 23.0829 42.2099 22.7169 41.7282 22.5114C40.744 22.0869 39.5697 22.2279 38.6638 22.8799C38.3648 23.0994 38.0814 23.4034 38.1218 23.5879C38.1348 23.6474 38.1797 23.6924 38.2845 23.7073C38.531 23.7353 39.3925 23.2994 40.3852 23.2384C41.0854 23.1954 41.6664 23.4149 42.1135 23.6114Z" fill="white"/>
<path fill-rule="evenodd" clip-rule="evenodd" d="M41.2164 24.1254C40.6339 24.2174 40.313 24.4099 40.1069 24.5884C39.9312 24.7424 39.8224 24.9129 39.8234 25.0324C39.8239 25.0894 39.8484 25.1224 39.8678 25.1389C39.8943 25.1624 39.9257 25.1754 39.9636 25.1754C40.0949 25.1754 40.3899 25.0569 40.3899 25.0569C41.1999 24.7664 41.7344 24.8019 42.264 24.8619C42.5564 24.8949 42.6952 24.9129 42.7591 24.8124C42.778 24.7834 42.801 24.7209 42.7426 24.6259C42.6064 24.4044 42.0179 24.0299 41.2164 24.1254Z" fill="white"/>
<path fill-rule="evenodd" clip-rule="evenodd" d="M45.6654 26.0115C46.0607 26.206 46.4959 26.1295 46.6376 25.841C46.7794 25.5525 46.5737 25.1605 46.1785 24.966C45.7832 24.7715 45.348 24.848 45.2062 25.1365C45.0645 25.4255 45.2701 25.817 45.6654 26.0115Z" fill="white"/>
<path fill-rule="evenodd" clip-rule="evenodd" d="M48.2071 23.7872C47.8862 23.7817 47.6197 24.1347 47.6122 24.5762C47.6047 25.0177 47.8593 25.3792 48.1802 25.3847C48.5011 25.3902 48.7676 25.0372 48.7751 24.5957C48.7826 24.1547 48.528 23.7927 48.2071 23.7872Z" fill="white"/>
<path fill-rule="evenodd" clip-rule="evenodd" d="M26.6363 31.7419C26.5565 31.6414 26.4252 31.6719 26.2979 31.7019C26.2091 31.7229 26.1088 31.7459 25.9985 31.7444C25.7624 31.7399 25.5623 31.6389 25.45 31.4659C25.3037 31.2409 25.3122 30.9054 25.4734 30.5214L25.5488 30.3494C25.8063 29.7704 26.237 28.8019 25.7534 27.8789C25.3891 27.1839 24.7951 26.7514 24.0809 26.6604C23.3952 26.5734 22.6895 26.8279 22.2393 27.3254C21.5291 28.1104 21.4178 29.1789 21.555 29.5564C21.6054 29.6944 21.6843 29.7329 21.7412 29.7409C21.862 29.7569 22.0406 29.6689 22.1524 29.3674L22.1844 29.2694C22.2343 29.1099 22.3271 28.8129 22.4793 28.5749C22.663 28.2879 22.9485 28.0904 23.2839 28.0179C23.6253 27.9444 23.9746 28.0099 24.2671 28.2019C24.7647 28.5279 24.9564 29.1389 24.7437 29.7214C24.6339 30.0229 24.4553 30.5994 24.4947 31.0729C24.5745 32.0314 25.163 32.4164 25.6915 32.4574C26.2056 32.4769 26.5649 32.1874 26.6558 31.9764C26.7092 31.8514 26.6643 31.7754 26.6348 31.7429" fill="white"/>
<path fill-rule="evenodd" clip-rule="evenodd" d="M31.5258 14.1371C33.2027 12.1961 35.2665 10.5086 37.1156 9.56112C37.1795 9.52812 37.2474 9.59763 37.2129 9.66063C37.0662 9.92712 36.7832 10.4976 36.6939 10.9301C36.6799 10.9976 36.7533 11.0481 36.8102 11.0096C37.9606 10.2241 39.9614 9.38212 41.7168 9.27412C41.7921 9.26962 41.8286 9.36613 41.7687 9.41263C41.5017 9.61763 41.2097 9.90162 40.9966 10.1886C40.9601 10.2376 40.9946 10.3076 41.0555 10.3081C42.2877 10.3171 44.0251 10.7491 45.1575 11.3856C45.2339 11.4286 45.1795 11.5771 45.0936 11.5576C43.3802 11.1641 40.5758 10.8656 37.6621 11.5776C35.0613 12.2131 33.0759 13.1946 31.6281 14.2496C31.5547 14.3031 31.4664 14.2056 31.5258 14.1371ZM39.8766 32.943L39.8771 32.944L39.8781 32.946L39.8766 32.943ZM46.7911 33.7605C46.841 33.7395 46.8749 33.683 46.8694 33.6265C46.8624 33.557 46.8005 33.5065 46.7312 33.5135C46.7312 33.5135 43.1532 34.044 39.7728 32.8045C40.1411 31.6055 41.1198 32.0385 42.5997 32.158C45.2668 32.3175 47.6575 31.927 49.4243 31.419C50.955 30.979 52.9659 30.111 54.5275 28.876C55.0541 30.035 55.2402 31.311 55.2402 31.311C55.2402 31.311 55.648 31.238 55.9889 31.448C56.3108 31.6465 56.5469 32.059 56.3857 33.126C56.0573 35.119 55.2118 36.737 53.7904 38.2255C52.9249 39.1585 51.8748 39.9695 50.673 40.5595C50.0347 40.8955 49.3554 41.186 48.6372 41.4205C43.2789 43.1739 37.7939 41.2465 36.0261 37.1075C35.8848 36.7965 35.7656 36.4705 35.6717 36.13C34.9186 33.4025 35.5579 30.13 37.5573 28.07C37.6806 27.939 37.8064 27.7835 37.8064 27.589C37.8064 27.4265 37.703 27.255 37.6137 27.133C36.914 26.1165 34.4909 24.3845 34.9775 21.0326C35.3269 18.6246 37.429 16.9286 39.389 17.0291L39.8856 17.0576C40.735 17.1081 41.4757 17.2171 42.1749 17.2466C43.3453 17.2976 44.3974 17.1271 45.6441 16.0866C46.0644 15.7356 46.4018 15.4311 46.9722 15.3346C47.0321 15.3241 47.1814 15.2706 47.4793 15.2846C47.7838 15.3011 48.0732 15.3846 48.3333 15.5581C49.3324 16.2241 49.4742 17.8376 49.5261 19.0176C49.5555 19.6911 49.6369 21.3211 49.6648 21.7891C49.7282 22.8591 50.0092 23.0096 50.5772 23.1971C50.8966 23.3026 51.1931 23.3811 51.6303 23.5041C52.9529 23.876 53.737 24.2535 54.2316 24.7385C54.5265 25.0415 54.6638 25.3635 54.7062 25.6705C54.8619 26.8105 53.8228 28.2185 51.0713 29.498C48.0637 30.8965 44.4149 31.2505 41.8939 30.969L41.0105 30.869C38.9942 30.597 37.8438 33.2075 39.0541 34.9965C39.8342 36.1495 41.9588 36.8995 44.0845 36.9C48.9581 36.9005 52.7043 34.8155 54.0978 33.015L54.2091 32.856C54.278 32.7525 54.2211 32.6955 54.1357 32.754C52.9973 33.5345 47.9405 36.633 42.5313 35.7005C42.5313 35.7005 41.874 35.592 41.2741 35.3585C40.7974 35.1725 39.7992 34.7125 39.678 33.687C44.043 35.0395 46.7911 33.7605 46.7911 33.7605ZM22.8151 23.3681C21.2968 23.6635 19.9587 24.5255 19.1407 25.7165C18.6516 25.308 17.7408 24.517 17.5795 24.2085C16.2734 21.7236 19.005 16.8926 20.9135 14.1641C25.6299 7.42163 33.0165 2.31816 36.4358 3.24416C36.9918 3.40165 38.833 5.54014 38.833 5.54014C38.833 5.54014 35.4147 7.44013 32.2449 10.0886C27.9737 13.3831 24.748 18.1716 22.8151 23.3681ZM25.3659 34.7705C25.1363 34.81 24.9018 34.8255 24.6652 34.8195C22.3808 34.758 19.9138 32.698 19.6688 30.255C19.3977 27.5545 20.7752 25.4765 23.2138 24.9835C23.5053 24.9245 23.8577 24.8905 24.2375 24.9105C25.604 24.9855 27.6173 26.0365 28.077 29.0185C28.4843 31.6595 27.8374 34.3485 25.3659 34.7705ZM56.3078 29.9885C56.2883 29.919 56.1606 29.4525 55.9854 28.89C55.8102 28.327 55.629 27.9315 55.629 27.9315C56.3318 26.878 56.3442 25.9355 56.2504 25.402C56.1506 24.7405 55.8756 24.177 55.3216 23.594C54.7676 23.0116 53.6341 22.4146 52.0415 21.9666L51.2061 21.7341C51.2021 21.6996 51.1621 19.7606 51.1262 18.9281C51.0997 18.3261 51.0483 17.3866 50.7574 16.4616C50.4105 15.2091 49.8066 14.1131 49.0525 13.4121C51.1337 11.2511 52.4328 8.87013 52.4293 6.82814C52.4233 2.90066 47.6086 1.71217 41.6748 4.17366L40.4176 4.70815C40.4121 4.70265 38.1447 2.47416 38.1108 2.44416C31.3456 -3.4673 10.1939 20.0861 16.9562 25.8065L18.434 27.061C18.0507 28.056 17.9 29.196 18.0232 30.4215C18.181 31.996 18.9915 33.505 20.3056 34.671C21.5528 35.778 23.1929 36.479 24.784 36.4775C27.4157 42.5529 33.4288 46.2799 40.479 46.4899C48.0418 46.7149 54.3903 43.1599 57.0504 36.774C57.2246 36.326 57.9628 34.3065 57.9628 32.5235C57.9628 30.732 56.9516 29.9885 56.3078 29.9885Z" fill="white"/>
</svg>
