<svg width="141" height="48" viewBox="0 0 141 48" fill="none" xmlns="http://www.w3.org/2000/svg">
<path d="M30.2624 37.0663C28.5926 37.3595 26.8934 37.4474 25.1357 37.6816L19.7745 21.9786V38.3555C18.1047 38.5313 16.5814 38.7656 14.9994 39V9H19.4524L25.5458 26.0217V9H30.2624V37.0663ZM39.4906 19.9863C41.307 19.9863 44.0901 19.8984 45.7599 19.8984V24.5858C43.6798 24.5858 41.2484 24.5858 39.4906 24.6737V31.6465C42.2445 31.4708 44.9982 31.2362 47.7812 31.1483V35.6597L34.8031 36.6854V9H47.7812V13.6875H39.4906V19.9863ZM65.2121 13.6876H60.349V35.2501C58.7671 35.2501 57.1851 35.2501 55.6619 35.3085V13.6876H50.7989V9H65.2123L65.2121 13.6876ZM72.8289 19.6642H79.2447V24.3516H72.8289V34.9864H68.2292V9H81.3247V13.6875H72.8289V19.6642ZM88.9415 30.8848C91.6075 30.9432 94.3025 31.1486 96.91 31.2948V35.9238C92.7208 35.66 88.5314 35.3966 84.2543 35.3085V9H88.9415V30.8848ZM100.865 36.2461C102.359 36.3341 103.941 36.422 105.464 36.5975V9H100.865V36.2461ZM126.001 9L120.054 23.2676L126.001 39C124.243 38.7656 122.485 38.4433 120.727 38.1503L117.358 29.4786L113.931 37.4474C112.232 37.1542 110.591 37.0663 108.892 36.8319L114.927 23.0917L109.478 9H114.517L117.593 16.8809L120.874 9H126.001V9Z" fill="white"/>
</svg>
