<svg width="152" height="48" viewBox="0 0 152 48" fill="none" xmlns="http://www.w3.org/2000/svg">
<path d="M53.3593 32.7229L54.8302 29.2915C56.4408 30.4819 58.5414 31.1121 60.6425 31.1121C62.1832 31.1121 63.1636 30.5171 63.1636 29.6068C63.1284 27.0856 53.8845 29.0464 53.8143 22.7078C53.7791 19.4864 56.6506 17.0003 60.7128 17.0003C63.1284 17.0003 65.5449 17.5957 67.2604 18.9616L65.8859 22.4662C64.3075 21.4532 62.358 20.747 60.5025 20.747C59.2419 20.747 58.4012 21.342 58.4012 22.1128C58.4364 24.599 67.751 23.2331 67.856 29.2915C67.856 32.5832 65.0543 34.8943 61.0623 34.8943C58.1215 34.8943 55.4258 34.1942 53.3593 32.7229ZM111.929 28.049C111.557 28.7075 111.017 29.2554 110.364 29.6369C109.71 30.0182 108.967 30.2192 108.21 30.2193C105.851 30.2193 103.938 28.3066 103.938 25.9473C103.938 23.588 105.851 21.6753 108.21 21.6753C108.967 21.6753 109.71 21.8764 110.364 22.2578C111.017 22.6391 111.557 23.1872 111.929 23.8457L116.018 21.58C114.486 18.8478 111.565 17.0003 108.21 17.0003C103.269 17.0003 99.2636 21.0056 99.2636 25.9473C99.2636 30.8884 103.269 34.8943 108.21 34.8943C111.565 34.8943 114.486 33.0468 116.018 30.3146L111.929 28.049ZM70.5096 34.544H75.6218V9.55243H70.5101L70.5096 34.544ZM118.6 9.55243V34.544H123.712V27.0565L129.77 34.544H136.305L128.601 25.649L135.744 17.3491H129.49L123.712 24.2496V9.55243H118.6ZM91.3722 17.3501V19.3816C90.532 17.9807 88.4659 17.0003 86.295 17.0003C81.8129 17.0003 78.2764 20.9575 78.2764 25.9298C78.2764 30.902 81.8129 34.8943 86.295 34.8943C88.4659 34.8943 90.532 33.9139 91.3722 32.513V34.544H96.4844V17.3501H91.3722ZM91.3722 28.0836C90.6369 29.3091 89.0961 30.2189 87.3807 30.2189C85.0209 30.2189 83.1086 28.3066 83.1086 25.9473C83.1086 23.588 85.0209 21.6753 87.3807 21.6753C89.0961 21.6753 90.6369 22.6206 91.3722 23.8807V28.0836Z" fill="white"/>
<path d="M26.361 9C24.7043 9 23.3614 10.3433 23.3614 11.9999C23.361 12.3934 23.4383 12.7832 23.5888 13.147C23.7393 13.5107 23.9602 13.8413 24.2387 14.1199C24.5172 14.3985 24.848 14.6195 25.2122 14.7705C25.5763 14.9215 25.9667 14.9994 26.361 14.9998H29.3611V11.9999C29.3618 11.205 29.046 10.4424 28.4834 9.87986C27.9208 9.31729 27.1574 9.0008 26.361 9ZM26.361 16.9997H18.3616C16.7049 16.9997 15.362 18.343 15.362 20.0001C15.362 21.6566 16.7049 23 18.3616 23H26.3615C28.0177 23 29.3611 21.6566 29.3611 20.0001C29.3611 18.343 28.0177 16.9997 26.361 16.9997Z" fill="white"/>
<path d="M45.3599 20.0001C45.3599 18.343 44.0165 16.9997 42.3597 16.9997C40.703 16.9997 39.3602 18.343 39.3602 20.0001V23H42.3597C43.1562 22.9992 43.9196 22.6827 44.4822 22.1201C45.0448 21.5575 45.3605 20.795 45.3599 20.0001ZM37.3604 20.0001V11.9999C37.3611 11.205 37.0454 10.4424 36.4828 9.87986C35.9202 9.31729 35.1568 9.0008 34.3603 9C32.7036 9 31.3608 10.3433 31.3608 11.9999V19.9996C31.3608 21.6571 32.7036 23.0005 34.3603 23.0005C35.1568 22.9996 35.9202 22.6831 36.4828 22.1206C37.0454 21.558 37.3611 20.795 37.3604 20.0001Z" fill="white"/>
<path d="M34.3603 39C35.1568 38.9993 35.9202 38.6828 36.4828 38.1202C37.0454 37.5577 37.3611 36.795 37.3604 36.0002C37.3611 35.2053 37.0454 34.4427 36.4828 33.8801C35.9202 33.3176 35.1568 33.0011 34.3603 33.0002H31.3608V36.0002C31.3608 37.6568 32.7036 39 34.3603 39ZM34.3603 31.0003H42.3602C44.0165 31.0003 45.3599 29.6571 45.3599 28C45.3605 27.2051 45.0448 26.4425 44.4822 25.8799C43.9196 25.3174 43.1562 25.0009 42.3597 25H34.3603C32.7036 25 31.3608 26.3434 31.3608 28C31.3603 28.3935 31.4377 28.7832 31.5882 29.147C31.7386 29.5108 31.9596 29.8414 32.2381 30.12C32.5166 30.3985 32.8474 30.6196 33.2116 30.7705C33.5757 30.9215 33.9661 30.9999 34.3603 31.0003Z" fill="white"/>
<path d="M15.362 28C15.3616 28.3935 15.4389 28.7832 15.5894 29.147C15.7399 29.5108 15.9608 29.8414 16.2393 30.12C16.5178 30.3985 16.8486 30.6196 17.2128 30.7705C17.5769 30.9215 17.9673 30.9995 18.3616 30.9998C19.158 30.999 19.9214 30.6825 20.484 30.12C21.0466 29.5574 21.3623 28.7948 21.3617 28V25H18.3616C16.7049 25 15.362 26.3434 15.362 28ZM23.3614 28V35.9997C23.3614 37.6568 24.7043 39 26.361 39C27.1574 38.9993 27.9208 38.6828 28.4834 38.1202C29.046 37.5577 29.3618 36.795 29.3611 36.0002V28C29.3614 27.6064 29.2842 27.2165 29.1336 26.8527C28.9831 26.489 28.7622 26.1584 28.4836 25.8798C28.205 25.6012 27.8741 25.3802 27.5099 25.2292C27.1458 25.0782 26.7553 25.0004 26.361 25C24.7043 25 23.3614 26.3434 23.3614 28Z" fill="white"/>
</svg>
