<svg width="169" height="48" viewBox="0 0 169 48" fill="none" xmlns="http://www.w3.org/2000/svg">
<path d="M133.615 22.1405V33H137.083V25.7603H149.766V33H153.234V22.1405H133.615ZM136.687 18.6198H150.063C151.946 18.2727 153.284 16.5868 153.68 15H133.07C133.466 16.5868 134.854 18.2231 136.687 18.6198ZM123.062 33C124.796 32.2562 125.738 30.9669 126.134 29.4793H110.528V15.0496H107.011V33H123.062ZM81.0005 18.5702H93.3862C95.2689 18.0248 96.8047 16.5868 97.201 15.0496H77.582V25.6612H93.6339V29.3802H81.05C79.0683 29.9256 77.3839 31.2645 76.5416 33H97.1019V22.1405H81.05L81.0005 18.5702ZM50.4821 18.6198H63.8587C65.7413 18.2727 67.1285 16.5868 67.4753 15H46.8159C47.2123 16.5868 48.5995 18.2231 50.4821 18.6198ZM50.4821 25.7107H63.8587C65.7413 25.3636 67.1285 23.6777 67.4753 22.0909H46.8159C47.2123 23.6777 48.5995 25.3141 50.4821 25.7107ZM50.4821 33H63.8587C65.7413 32.6529 67.1285 30.9669 67.4753 29.3802H46.8159C47.2123 30.9669 48.5995 32.6529 50.4821 33Z" fill="white"/>
<path d="M15.6534 15.0496C16.0498 16.6364 17.437 18.2231 19.27 18.6198H24.9179L25.2152 18.719V32.9504H28.7327V18.719L29.03 18.6198H34.6779C36.5605 18.124 37.8982 16.6364 38.2945 15.0496V15L15.6534 15.0496Z" fill="white"/>
</svg>
