<svg width="117" height="48" viewBox="0 0 117 48" fill="none" xmlns="http://www.w3.org/2000/svg">
<path d="M20.2336 30.4256C20.5975 31.3948 21.1013 32.2234 21.745 32.9116C22.3888 33.5998 23.1515 34.1265 24.0331 34.4917C24.9148 34.8568 25.8734 35.0394 26.9091 35.0394C27.9167 35.0394 28.8613 34.8498 29.743 34.4705C30.6247 34.0912 31.3944 33.5576 32.0521 32.8694C32.7098 32.1812 33.2206 31.3596 33.5845 30.4045C33.9484 29.4495 34.1303 28.3821 34.1303 27.2023V9H38.5386V38.4944H34.1723V35.7556C33.1927 36.7949 32.038 37.5955 30.7086 38.1574C29.379 38.7191 27.9447 39 26.4053 39C24.8378 39 23.3754 38.7261 22.0179 38.1783C20.6605 37.6306 19.4848 36.8512 18.4913 35.8399C17.4978 34.8286 16.714 33.6139 16.1402 32.1953C15.5664 30.7767 15.2795 29.1967 15.2795 27.455V9H19.6878V27.2023C19.6878 28.3821 19.8697 29.4565 20.2336 30.4256Z" fill="white"/>
<path d="M46.1373 9V19.7444C47.1169 18.7612 48.2505 17.9818 49.538 17.4059C50.8254 16.83 52.225 16.5421 53.7363 16.5421C55.3038 16.5421 56.7731 16.837 58.1446 17.4269C59.516 18.0168 60.7055 18.8174 61.7132 19.8286C62.7208 20.8399 63.5186 22.0337 64.1063 23.4101C64.6941 24.7866 64.9879 26.2472 64.9879 27.7922C64.9879 29.337 64.6941 30.7907 64.1063 32.153C63.5186 33.5154 62.7208 34.7023 61.7132 35.7134C60.7055 36.7247 59.516 37.5253 58.1446 38.1151C56.7731 38.705 55.3037 38.9999 53.7363 38.9999C52.2249 38.9999 50.8185 38.712 49.517 38.1361C48.2155 37.5603 47.0749 36.7808 46.0953 35.7977V38.4943H41.8969V9H46.1373ZM46.6201 30.6994C46.9979 31.5984 47.5227 32.3849 48.1945 33.0591C48.8662 33.7332 49.6499 34.267 50.5455 34.6602C51.4413 35.0535 52.4068 35.2501 53.4425 35.2501C54.4501 35.2501 55.4017 35.0535 56.2973 34.6602C57.193 34.267 57.9696 33.7333 58.6275 33.0591C59.2852 32.385 59.81 31.5984 60.2018 30.6994C60.5937 29.8006 60.7896 28.8315 60.7896 27.7922C60.7896 26.7528 60.5937 25.7767 60.2018 24.8637C59.81 23.9508 59.2852 23.1573 58.6275 22.4832C57.9697 21.8091 57.193 21.2823 56.2973 20.9031C55.4016 20.524 54.45 20.3342 53.4425 20.3342C52.4349 20.3342 51.4833 20.5239 50.5876 20.9031C49.692 21.2824 48.9083 21.8091 48.2365 22.4832C47.5648 23.1573 47.033 23.9508 46.6411 24.8637C46.2493 25.7767 46.0534 26.7528 46.0534 27.7922C46.0533 28.8315 46.2422 29.8006 46.6201 30.6994Z" fill="white"/>
<path d="M67.3805 23.4522C67.9402 22.1039 68.71 20.9172 69.6895 19.8919C70.669 18.8666 71.8307 18.059 73.1742 17.4691C74.5177 16.8793 75.9732 16.5844 77.5405 16.5844C79.0799 16.5844 80.5074 16.8653 81.8229 17.427C83.1384 17.9888 84.2719 18.7683 85.2235 19.7656C86.1752 20.7627 86.917 21.9425 87.4486 23.3048C87.9805 24.6672 88.2464 26.149 88.2464 27.7501V29.1406H70.8232C70.9632 30.0114 71.2431 30.819 71.6629 31.5633C72.0828 32.3076 72.6075 32.9537 73.2372 33.5015C73.867 34.0493 74.5807 34.4777 75.3784 34.7866C76.1761 35.0955 77.0227 35.2501 77.9184 35.2501C80.4655 35.2501 82.5227 34.1967 84.0901 32.0899L87.1549 34.3652C86.0913 35.7978 84.7759 36.9214 83.2085 37.736C81.641 38.5505 79.8777 38.9579 77.9185 38.9579C76.3231 38.9579 74.8327 38.6769 73.4473 38.1151C72.0618 37.5534 70.8583 36.7668 69.8367 35.7555C68.8151 34.7442 68.0104 33.5575 67.4226 32.1952C66.8349 30.8329 66.5409 29.351 66.5409 27.75C66.5408 26.2332 66.8208 24.8006 67.3805 23.4522ZM73.2792 21.7879C72.0896 22.7851 71.299 24.1123 70.9071 25.7696H83.9641C83.6003 24.1123 82.8235 22.7851 81.634 21.7879C80.4444 20.7907 79.052 20.2921 77.4566 20.2921C75.8612 20.2921 74.4688 20.7907 73.2792 21.7879Z" fill="white"/>
<path d="M96.1812 22.2725C95.2856 23.2556 94.8377 24.5898 94.8377 26.2753V38.4945H90.5973V17.0057H94.7956V19.6602C95.3275 18.7894 96.0202 18.1011 96.8739 17.5955C97.7275 17.0899 98.7421 16.837 99.9177 16.837H101.387V20.7977H99.6238C98.2244 20.7978 97.0768 21.2893 96.1812 22.2725Z" fill="white"/>
</svg>
